<?xml version="1.0" encoding="UTF-8"?>
<svg id="b" data-name="Layer_2" xmlns="http://www.w3.org/2000/svg" width="286.857" height="84.995" viewBox="0 0 286.857 84.995">
  <g id="c" data-name="Design">
    <g>
      <path d="M276.651,84.995H10.048c-5.54,0-10.048-4.522-10.048-10.057V10.042C0,4.505,4.509,0,10.048,0h266.602c5.537,0,10.206,4.505,10.206,10.042v64.895c0,5.535-4.668,10.057-10.206,10.057h0Z" style="fill: #ffefe9;"/>
      <path d="M284.8,74.94c0,4.496-3.642,8.138-8.147,8.138H10.048c-4.503,0-8.157-3.642-8.157-8.138V10.04C1.891,5.546,5.546,1.891,10.048,1.891h266.602c4.507,0,8.147,3.655,8.147,8.149l.002,64.9h0Z" style="fill: #1b2021;"/>
      <g>
        <path d="M64.018,42.038c-.062-6.848,5.608-10.18,5.867-10.335-3.211-4.681-8.187-5.321-9.936-5.372-4.18-.44-8.234,2.501-10.363,2.501-2.172,0-5.45-2.458-8.984-2.386-4.547.07-8.801,2.703-11.134,6.791-4.815,8.336-1.224,20.586,3.389,27.324,2.308,3.3,5.004,6.984,8.533,6.855,3.453-.142,4.743-2.201,8.91-2.201,4.129,0,5.34,2.201,8.939,2.118,3.706-.059,6.039-3.315,8.266-6.644,2.667-3.782,3.738-7.507,3.78-7.698-.087-.03-7.197-2.743-7.267-10.952Z" style="fill: #ffefe9;"/>
        <path d="M57.218,21.899c1.857-2.322,3.128-5.482,2.775-8.689-2.688.119-6.049,1.859-7.985,4.131-1.713,2.002-3.243,5.282-2.847,8.368,3.019.225,6.12-1.524,8.057-3.81Z" style="fill: #ffefe9;"/>
      </g>
      <g>
        <path d="M113.988,66.942h-4.826l-2.643-8.306h-9.188l-2.518,8.306h-4.698l9.103-28.278h5.622l9.148,28.278ZM105.723,55.151l-2.39-7.384c-.253-.754-.727-2.531-1.426-5.327h-.085c-.278,1.203-.727,2.979-1.343,5.327l-2.348,7.384h7.592Z" style="fill: #ffefe9;"/>
        <path d="M137.398,56.496c0,3.468-.937,6.209-2.811,8.221-1.679,1.791-3.763,2.686-6.251,2.686-2.686,0-4.615-.965-5.79-2.894h-.085v10.741h-4.53v-21.986c0-2.18-.057-4.418-.168-6.712h3.984l.253,3.232h.085c1.511-2.435,3.804-3.651,6.88-3.651,2.405,0,4.413.95,6.02,2.852,1.611,1.904,2.414,4.407,2.414,7.511ZM132.783,56.662c0-1.985-.446-3.621-1.343-4.908-.98-1.343-2.295-2.014-3.944-2.014-1.118,0-2.133.374-3.041,1.111-.909.744-1.504,1.715-1.783,2.917-.14.561-.21,1.02-.21,1.381v3.4c0,1.483.455,2.735,1.364,3.757s2.091,1.532,3.544,1.532c1.706,0,3.034-.659,3.984-1.972.952-1.315,1.428-3.049,1.428-5.204Z" style="fill: #ffefe9;"/>
        <path d="M160.85,56.496c0,3.468-.937,6.209-2.813,8.221-1.677,1.791-3.761,2.686-6.249,2.686-2.686,0-4.615-.965-5.788-2.894h-.085v10.741h-4.53v-21.986c0-2.18-.057-4.418-.168-6.712h3.984l.253,3.232h.085c1.509-2.435,3.801-3.651,6.88-3.651,2.403,0,4.411.95,6.022,2.852,1.604,1.904,2.41,4.407,2.41,7.511ZM156.235,56.662c0-1.985-.448-3.621-1.345-4.908-.98-1.343-2.291-2.014-3.942-2.014-1.12,0-2.133.374-3.043,1.111-.909.744-1.502,1.715-1.781,2.917-.138.561-.21,1.02-.21,1.381v3.4c0,1.483.455,2.735,1.36,3.757.909,1.02,2.091,1.532,3.549,1.532,1.706,0,3.034-.659,3.984-1.972.952-1.315,1.428-3.049,1.428-5.204Z" style="fill: #ffefe9;"/>
        <path d="M187.071,59.012c0,2.405-.835,4.362-2.512,5.873-1.842,1.651-4.407,2.475-7.703,2.475-3.043,0-5.482-.586-7.329-1.762l1.05-3.776c1.989,1.203,4.171,1.806,6.549,1.806,1.706,0,3.034-.387,3.988-1.156.95-.769,1.424-1.802,1.424-3.09,0-1.147-.391-2.114-1.175-2.898-.78-.784-2.082-1.513-3.901-2.186-4.951-1.847-7.424-4.551-7.424-8.108,0-2.325.867-4.231,2.603-5.714,1.73-1.485,4.037-2.227,6.923-2.227,2.573,0,4.711.448,6.417,1.343l-1.133,3.693c-1.594-.867-3.396-1.3-5.412-1.3-1.594,0-2.839.393-3.731,1.175-.754.699-1.133,1.551-1.133,2.56,0,1.118.431,2.042,1.298,2.769.754.671,2.125,1.398,4.114,2.182,2.433.98,4.22,2.125,5.37,3.438,1.145,1.309,1.717,2.947,1.717,4.902Z" style="fill: #ffefe9;"/>
        <path d="M202.049,49.951h-4.993v9.9c0,2.518.88,3.776,2.643,3.776.81,0,1.481-.07,2.012-.21l.125,3.44c-.892.334-2.067.501-3.523.501-1.789,0-3.187-.546-4.197-1.636-1.005-1.092-1.511-2.924-1.511-5.497v-10.278h-2.975v-3.4h2.975v-3.733l4.449-1.343v5.076h4.993v3.404Z" style="fill: #ffefe9;"/>
        <path d="M224.579,56.579c0,3.134-.897,5.707-2.686,7.72-1.876,2.072-4.367,3.104-7.471,3.104-2.992,0-5.374-.992-7.15-2.977s-2.665-4.49-2.665-7.509c0-3.16.914-5.748,2.747-7.76,1.83-2.014,4.299-3.022,7.403-3.022,2.992,0,5.399.992,7.216,2.979,1.738,1.927,2.605,4.415,2.605,7.465ZM219.879,56.725c0-1.881-.402-3.493-1.215-4.838-.95-1.628-2.308-2.439-4.067-2.439-1.821,0-3.204.814-4.154,2.439-.814,1.347-1.215,2.985-1.215,4.923,0,1.881.402,3.493,1.215,4.836.98,1.628,2.348,2.439,4.114,2.439,1.73,0,3.087-.829,4.067-2.482.835-1.371,1.256-3,1.256-4.879Z" style="fill: #ffefe9;"/>
        <path d="M239.304,50.536c-.448-.083-.926-.125-1.428-.125-1.594,0-2.826.601-3.693,1.806-.754,1.062-1.133,2.405-1.133,4.027v10.699h-4.528l.042-13.969c0-2.35-.057-4.49-.17-6.419h3.946l.166,3.901h.125c.478-1.341,1.232-2.42,2.265-3.23,1.009-.729,2.099-1.092,3.274-1.092.419,0,.797.03,1.133.083v4.32Z" style="fill: #ffefe9;"/>
        <path d="M259.565,55.782c0,.812-.053,1.496-.166,2.055h-13.591c.053,2.014.71,3.555,1.972,4.617,1.145.95,2.626,1.426,4.445,1.426,2.012,0,3.848-.321,5.499-.965l.71,3.145c-1.929.841-4.207,1.26-6.836,1.26-3.162,0-5.644-.931-7.45-2.79-1.802-1.859-2.705-4.356-2.705-7.488,0-3.075.839-5.635,2.52-7.677,1.759-2.18,4.137-3.27,7.129-3.27,2.939,0,5.163,1.09,6.674,3.27,1.196,1.732,1.798,3.874,1.798,6.417ZM255.245,54.607c.03-1.343-.266-2.503-.88-3.483-.784-1.26-1.989-1.889-3.61-1.889-1.481,0-2.686.614-3.606,1.847-.754.98-1.203,2.155-1.341,3.523h9.437v.002Z" style="fill: #ffefe9;"/>
      </g>
      <g>
        <path d="M104.225,21.268c0,2.501-.75,4.384-2.248,5.648-1.388,1.167-3.359,1.751-5.913,1.751-1.266,0-2.35-.055-3.257-.166v-13.665c1.184-.191,2.458-.289,3.835-.289,2.433,0,4.267.529,5.503,1.587,1.385,1.196,2.08,2.907,2.08,5.134ZM101.877,21.329c0-1.621-.429-2.864-1.288-3.731-.858-.865-2.112-1.298-3.763-1.298-.701,0-1.298.047-1.793.144v10.388c.274.042.776.062,1.504.062,1.704,0,3.019-.474,3.946-1.422.926-.948,1.394-2.329,1.394-4.143Z" style="fill: #ffefe9;"/>
        <path d="M116.674,23.452c0,1.541-.44,2.803-1.32,3.793-.922,1.018-2.144,1.526-3.67,1.526-1.47,0-2.641-.487-3.515-1.464-.871-.975-1.307-2.206-1.307-3.689,0-1.551.448-2.824,1.349-3.812.901-.988,2.112-1.483,3.638-1.483,1.47,0,2.652.487,3.546,1.462.85.948,1.277,2.172,1.277,3.668ZM114.364,23.524c0-.924-.2-1.717-.597-2.378-.467-.799-1.133-1.198-1.997-1.198-.895,0-1.575.399-2.042,1.198-.399.661-.597,1.466-.597,2.418,0,.924.2,1.717.597,2.378.482.799,1.154,1.198,2.021,1.198.85,0,1.517-.406,1.997-1.22.412-.674.618-1.473.618-2.397Z" style="fill: #ffefe9;"/>
        <path d="M133.367,18.527l-3.134,10.017h-2.04l-1.298-4.35c-.329-1.086-.597-2.165-.805-3.236h-.04c-.193,1.101-.461,2.178-.805,3.236l-1.379,4.35h-2.063l-2.947-10.017h2.288l1.133,4.762c.274,1.126.499,2.199.68,3.215h.04c.166-.837.44-1.904.827-3.194l1.422-4.781h1.815l1.362,4.679c.329,1.141.597,2.24.803,3.298h.062c.151-1.031.378-2.129.68-3.298l1.215-4.679h2.186v-.002Z" style="fill: #ffefe9;"/>
        <path d="M144.911,28.543h-2.227v-5.737c0-1.768-.671-2.652-2.019-2.652-.661,0-1.194.242-1.609.729-.41.487-.618,1.06-.618,1.717v5.941h-2.227v-7.152c0-.88-.028-1.834-.081-2.866h1.957l.104,1.566h.062c.259-.487.646-.888,1.154-1.209.603-.374,1.279-.563,2.019-.563.935,0,1.713.302,2.331.907.769.742,1.154,1.849,1.154,3.319v6.001Z" style="fill: #ffefe9;"/>
        <path d="M151.052,28.543h-2.225v-14.613h2.225v14.613Z" style="fill: #ffefe9;"/>
        <path d="M164.163,23.452c0,1.541-.44,2.803-1.32,3.793-.922,1.018-2.146,1.526-3.67,1.526-1.473,0-2.643-.487-3.515-1.464-.871-.975-1.307-2.206-1.307-3.689,0-1.551.448-2.824,1.349-3.812.901-.988,2.112-1.483,3.636-1.483,1.473,0,2.652.487,3.549,1.462.85.948,1.277,2.172,1.277,3.668ZM161.851,23.524c0-.924-.2-1.717-.597-2.378-.465-.799-1.133-1.198-1.995-1.198-.897,0-1.577.399-2.042,1.198-.399.661-.597,1.466-.597,2.418,0,.924.2,1.717.597,2.378.482.799,1.154,1.198,2.021,1.198.85,0,1.515-.406,1.995-1.22.414-.674.618-1.473.618-2.397Z" style="fill: #ffefe9;"/>
        <path d="M174.94,28.543h-2l-.166-1.154h-.062c-.684.92-1.66,1.381-2.926,1.381-.946,0-1.711-.304-2.286-.907-.523-.548-.784-1.23-.784-2.04,0-1.224.51-2.157,1.536-2.803,1.024-.646,2.465-.963,4.32-.948v-.187c0-1.32-.693-1.978-2.08-1.978-.988,0-1.859.249-2.611.742l-.453-1.462c.931-.576,2.08-.865,3.436-.865,2.618,0,3.931,1.381,3.931,4.143v3.689c0,1.001.049,1.798.144,2.388ZM172.628,25.101v-1.545c-2.456-.042-3.685.631-3.685,2.019,0,.523.14.914.427,1.175.287.261.652.391,1.088.391.489,0,.946-.155,1.362-.463.419-.31.676-.703.771-1.186.023-.108.036-.24.036-.391Z" style="fill: #ffefe9;"/>
        <path d="M187.594,28.543h-1.976l-.104-1.609h-.062c-.631,1.224-1.706,1.836-3.217,1.836-1.207,0-2.212-.474-3.009-1.422s-1.194-2.178-1.194-3.689c0-1.621.431-2.934,1.298-3.937.839-.935,1.868-1.402,3.092-1.402,1.345,0,2.286.453,2.822,1.36h.042v-5.75h2.229v11.914c0,.975.025,1.874.079,2.699ZM185.286,24.319v-1.67c0-.289-.021-.523-.062-.701-.125-.535-.395-.986-.805-1.349-.414-.363-.914-.546-1.49-.546-.831,0-1.481.329-1.959.99-.474.661-.714,1.504-.714,2.535,0,.99.227,1.793.684,2.412.482.659,1.133.988,1.946.988.731,0,1.315-.274,1.759-.824.429-.508.64-1.12.64-1.834Z" style="fill: #ffefe9;"/>
        <path d="M206.639,23.452c0,1.541-.44,2.803-1.32,3.793-.922,1.018-2.142,1.526-3.67,1.526-1.468,0-2.639-.487-3.515-1.464-.871-.975-1.307-2.206-1.307-3.689,0-1.551.448-2.824,1.349-3.812.901-.988,2.112-1.483,3.64-1.483,1.468,0,2.652.487,3.544,1.462.85.948,1.277,2.172,1.277,3.668ZM204.331,23.524c0-.924-.2-1.717-.597-2.378-.47-.799-1.133-1.198-2-1.198-.892,0-1.572.399-2.042,1.198-.399.661-.597,1.466-.597,2.418,0,.924.2,1.717.597,2.378.482.799,1.154,1.198,2.021,1.198.85,0,1.519-.406,2-1.22.41-.674.618-1.473.618-2.397Z" style="fill: #ffefe9;"/>
        <path d="M218.612,28.543h-2.225v-5.737c0-1.768-.671-2.652-2.021-2.652-.661,0-1.194.242-1.606.729s-.618,1.06-.618,1.717v5.941h-2.229v-7.152c0-.88-.026-1.834-.079-2.866h1.955l.104,1.566h.062c.261-.487.648-.888,1.154-1.209.606-.374,1.279-.563,2.021-.563.933,0,1.711.302,2.329.907.771.742,1.154,1.849,1.154,3.319v6.001Z" style="fill: #ffefe9;"/>
        <path d="M233.599,20.195h-2.452v4.866c0,1.237.436,1.855,1.298,1.855.399,0,.731-.034.992-.104l.057,1.689c-.44.166-1.018.249-1.73.249-.88,0-1.564-.268-2.059-.803-.497-.535-.744-1.436-.744-2.701v-5.051h-1.464v-1.668h1.464v-1.836l2.182-.659v2.492h2.452v1.67h.002Z" style="fill: #ffefe9;"/>
        <path d="M245.388,28.543h-2.229v-5.695c0-1.796-.671-2.694-2.016-2.694-1.033,0-1.738.521-2.125,1.562-.066.219-.104.487-.104.801v6.024h-2.225v-14.611h2.225v6.037h.042c.701-1.099,1.706-1.647,3.009-1.647.922,0,1.685.302,2.291.907.754.754,1.133,1.876,1.133,3.359v5.956Z" style="fill: #ffefe9;"/>
        <path d="M257.548,23.061c0,.399-.03.735-.083,1.009h-6.678c.03.99.348,1.745.967,2.267.565.467,1.294.701,2.186.701.988,0,1.889-.157,2.701-.474l.348,1.547c-.95.412-2.067.618-3.362.618-1.551,0-2.773-.457-3.657-1.371-.888-.914-1.328-2.14-1.328-3.678,0-1.511.41-2.769,1.237-3.772.863-1.071,2.029-1.606,3.502-1.606,1.441,0,2.535.535,3.274,1.606.597.85.892,1.902.892,3.151ZM255.424,22.485c.017-.661-.13-1.23-.431-1.711-.387-.618-.975-.929-1.772-.929-.727,0-1.32.302-1.772.907-.37.482-.589,1.058-.661,1.732h4.636Z" style="fill: #ffefe9;"/>
      </g>
    </g>
  </g>
</svg>