<?xml version="1.0" encoding="UTF-8"?>
<svg id="b" data-name="Layer_2" xmlns="http://www.w3.org/2000/svg" width="9.152" height="9.152" viewBox="0 0 9.152 9.152">
  <g id="c" data-name="Layer_1">
    <path id="d" data-name="block-pink" d="M4.576,0C2.049,0,0,2.049,0,4.576s2.049,4.576,4.576,4.576,4.576-2.049,4.576-4.576S7.103,0,4.576,0ZM4.576,1.398c.59,0,1.137.172,1.611.454L1.852,6.187c-.282-.474-.454-1.021-.454-1.611,0-1.752,1.425-3.178,3.178-3.178ZM4.576,7.754c-.59,0-1.136-.172-1.611-.454L7.3,2.965c.281.474.454,1.02.454,1.61,0,1.752-1.425,3.178-3.178,3.178Z" style="fill: #b743ed;"/>
  </g>
</svg>