<?xml version="1.0" encoding="UTF-8"?>
<svg id="b" data-name="Layer_2" xmlns="http://www.w3.org/2000/svg" width="8.661" height="7.619" viewBox="0 0 8.661 7.619">
  <g id="c" data-name="Layer_1">
    <g id="d" data-name="complete-pink">
      <g>
        <path d="M8.143,3.787h0c0-2.088-1.699-3.787-3.787-3.787h-.001c-1.011,0-1.962.394-2.677,1.109,0,0,0,0-.001.001l.829.829s0,0,0-.001c.494-.494,1.15-.766,1.848-.766h0c1.442,0,2.615,1.173,2.615,2.615,0,0,0,0,0,0v1.742s1.69-1.742,1.69-1.742h-.518Z" style="fill: #b743ed;"/>
        <path d="M.518,3.832h0c0,2.088,1.699,3.787,3.787,3.787h.001c1.011,0,1.962-.394,2.677-1.109,0,0,0,0,.001-.001l-.829-.829s0,0,0,.001c-.494.494-1.15.766-1.848.766h0c-1.442,0-2.615-1.173-2.615-2.615,0,0,0,0,0,0v-1.742s-1.69,1.742-1.69,1.742h.518Z" style="fill: #b743ed;"/>
      </g>
    </g>
  </g>
</svg>