<?xml version="1.0" encoding="UTF-8"?>
<svg id="b" data-name="Layer_2" xmlns="http://www.w3.org/2000/svg" width="8.456" height="8.456" viewBox="0 0 8.456 8.456">
  <g id="c" data-name="Layer_1">
    <g id="d" data-name="confirm-pink">
      <path d="M4.228,0C1.897,0,0,1.897,0,4.228s1.897,4.228,4.228,4.228,4.228-1.897,4.228-4.228S6.559,0,4.228,0ZM4.228,7.529c-1.82,0-3.301-1.481-3.301-3.301S2.408.927,4.228.927c.769,0,1.478.265,2.039.708l-2.024,3.38h-.547s-.808-1.348-.808-1.348h-1.198s1.424,2.376,1.424,2.376h1.712s2.166-3.617,2.166-3.617c.339.518.537,1.137.537,1.801,0,1.82-1.481,3.301-3.301,3.301Z" style="fill: #b743ed;"/>
    </g>
  </g>
</svg>