<?xml version="1.0" encoding="UTF-8"?>
<svg id="b" data-name="Layer_2" xmlns="http://www.w3.org/2000/svg" width="11.671" height="6.103" viewBox="0 0 11.671 6.103">
  <g id="c" data-name="Layer_1">
    <g id="d" data-name="face-pink">
      <path d="M9.724,4.634c-2.222,1.959-5.555,1.959-7.777,0,.267-.303.534-.606.801-.909,1.765,1.556,4.411,1.556,6.175,0,.267.303.534.606.801.909Z" style="fill: #b743ed;"/>
      <g>
        <polygon points="9.924 0 7.824 0 6.077 2.915 7.547 2.915 8.538 1.261 9.21 1.261 10.201 2.915 11.671 2.915 9.924 0" style="fill: #b743ed;"/>
        <polygon points="3.847 0 1.747 0 0 2.915 1.47 2.915 2.461 1.261 3.133 1.261 4.124 2.915 5.594 2.915 3.847 0" style="fill: #b743ed;"/>
      </g>
    </g>
  </g>
</svg>