<?xml version="1.0" encoding="UTF-8"?>
<svg id="b" data-name="Layer_2" xmlns="http://www.w3.org/2000/svg" width="286.857" height="84.995" viewBox="0 0 286.857 84.995">
  <g id="c" data-name="Design">
    <g>
      <rect width="286.857" height="84.995" rx="10.624" ry="10.624" style="fill: #1b2021;"/>
      <path d="M276.232,1.7c4.921,0,8.924,4.004,8.924,8.925v63.746c0,4.921-4.003,8.925-8.924,8.925H10.624c-4.921,0-8.924-4.004-8.924-8.925V10.625C1.7,5.704,5.703,1.7,10.624,1.7h265.608M276.232,0H10.624C4.781,0,0,4.781,0,10.625v63.746c0,5.843,4.781,10.624,10.624,10.624h265.608c5.843,0,10.624-4.781,10.624-10.624V10.625C286.857,4.781,282.076,0,276.232,0h0Z" style="fill: #ffefe9;"/>
      <g>
        <path d="M100.758,21.766c0,1.78-.527,3.199-1.583,4.256-1.199,1.257-2.762,1.886-4.683,1.886-1.841,0-3.405-.637-4.692-1.913-1.289-1.276-1.932-2.858-1.932-4.746s.643-3.469,1.932-4.746c1.287-1.276,2.851-1.914,4.692-1.914.913,0,1.787.178,2.617.534.83.357,1.496.831,1.994,1.425l-1.121,1.122c-.844-1.008-2.007-1.513-3.49-1.513-1.342,0-2.502.471-3.482,1.415-.98.944-1.469,2.169-1.469,3.677s.49,2.733,1.469,3.677c.979.944,2.139,1.415,3.482,1.415,1.424,0,2.611-.474,3.561-1.423.616-.619.973-1.478,1.069-2.583h-4.629v-1.531h6.178c.06.333.089.653.089.962Z" style="fill: #ffefe9;"/>
        <path d="M110.552,16.441h-5.806v4.042h5.235v1.532h-5.235v4.042h5.806v1.567h-7.443v-12.749h7.443v1.567Z" style="fill: #ffefe9;"/>
        <path d="M117.46,27.623h-1.639v-11.183h-3.561v-1.567h8.761v1.567h-3.561v11.183Z" style="fill: #ffefe9;"/>
        <path d="M127.36,27.623v-12.749h1.637v12.749h-1.637Z" style="fill: #ffefe9;"/>
        <path d="M136.264,27.623h-1.639v-11.183h-3.561v-1.567h8.761v1.567h-3.561v11.183Z" style="fill: #ffefe9;"/>
        <path d="M156.41,25.976c-1.253,1.289-2.812,1.932-4.675,1.932s-3.422-.643-4.673-1.932c-1.253-1.287-1.878-2.863-1.878-4.727s.624-3.44,1.878-4.727c1.251-1.289,2.809-1.933,4.673-1.933,1.853,0,3.407.647,4.667,1.941,1.257,1.294,1.886,2.867,1.886,4.719,0,1.864-.627,3.44-1.878,4.727ZM148.271,24.908c.944.956,2.098,1.433,3.463,1.433s2.521-.477,3.463-1.433c.944-.956,1.417-2.176,1.417-3.659s-.473-2.704-1.417-3.659c-.942-.956-2.098-1.433-3.463-1.433s-2.519.477-3.463,1.433c-.942.956-1.415,2.176-1.415,3.659s.473,2.704,1.415,3.659Z" style="fill: #ffefe9;"/>
        <path d="M160.587,27.623v-12.749h1.994l6.196,9.918h.071l-.071-2.457v-7.461h1.639v12.749h-1.71l-6.483-10.398h-.071l.071,2.457v7.941h-1.637Z" style="fill: #ffefe9;"/>
      </g>
      <path d="M144.779,46.219c-4.998,0-9.072,3.8-9.072,9.037,0,5.203,4.074,9.037,9.072,9.037s9.072-3.834,9.072-9.037c0-5.238-4.074-9.037-9.072-9.037ZM144.779,60.734c-2.739,0-5.101-2.259-5.101-5.477,0-3.252,2.362-5.477,5.101-5.477s5.101,2.225,5.101,5.477c0,3.218-2.362,5.477-5.101,5.477ZM124.99,46.219c-4.998,0-9.072,3.8-9.072,9.037,0,5.203,4.074,9.037,9.072,9.037s9.071-3.834,9.071-9.037c0-5.238-4.074-9.037-9.071-9.037ZM124.99,60.734c-2.739,0-5.101-2.259-5.101-5.477,0-3.252,2.362-5.477,5.101-5.477s5.101,2.225,5.101,5.477c0,3.218-2.362,5.477-5.101,5.477ZM101.449,48.992v3.834h9.175c-.274,2.157-.993,3.731-2.088,4.827-1.335,1.335-3.423,2.807-7.086,2.807-5.648,0-10.064-4.553-10.064-10.201s4.416-10.201,10.064-10.201c3.047,0,5.272,1.198,6.915,2.739l2.704-2.704c-2.294-2.191-5.34-3.868-9.619-3.868-7.737,0-14.241,6.299-14.241,14.035s6.504,14.035,14.241,14.035c4.176,0,7.326-1.369,9.791-3.937,2.533-2.533,3.321-6.093,3.321-8.969,0-.89-.068-1.712-.206-2.396h-12.906ZM197.723,51.97c-.753-2.02-3.047-5.751-7.737-5.751-4.656,0-8.524,3.663-8.524,9.037,0,5.067,3.834,9.037,8.969,9.037,4.142,0,6.538-2.533,7.531-4.005l-3.081-2.054c-1.027,1.506-2.43,2.499-4.45,2.499s-3.458-.924-4.382-2.739l12.084-4.998-.411-1.027ZM185.399,54.983c-.103-3.492,2.704-5.272,4.724-5.272,1.575,0,2.91.787,3.355,1.917l-8.079,3.355ZM175.574,63.746h3.971v-26.564h-3.971v26.564ZM169.07,48.239h-.137c-.89-1.061-2.602-2.02-4.758-2.02-4.519,0-8.661,3.971-8.661,9.071,0,5.067,4.142,9.003,8.661,9.003,2.157,0,3.868-.959,4.758-2.054h.137v1.301c0,3.458-1.848,5.306-4.827,5.306-2.43,0-3.937-1.746-4.553-3.218l-3.458,1.438c.993,2.396,3.629,5.34,8.01,5.34,4.656,0,8.593-2.739,8.593-9.414v-16.226h-3.766v1.472ZM164.517,60.734c-2.739,0-5.032-2.294-5.032-5.443,0-3.183,2.294-5.511,5.032-5.511,2.704,0,4.827,2.328,4.827,5.511,0,3.149-2.122,5.443-4.827,5.443ZM216.323,37.183h-9.501v26.564h3.964v-10.064h5.536c4.395,0,8.714-3.182,8.714-8.25s-4.319-8.25-8.714-8.25ZM216.426,49.985h-5.639v-9.106h5.639c2.964,0,4.648,2.454,4.648,4.553,0,2.059-1.683,4.553-4.648,4.553ZM240.929,46.171c-2.871,0-5.844,1.265-7.074,4.067l3.52,1.47c.752-1.47,2.153-1.948,3.622-1.948,2.05,0,4.135,1.23,4.169,3.417v.273c-.718-.41-2.256-1.025-4.135-1.025-3.793,0-7.655,2.085-7.655,5.981,0,3.554,3.11,5.844,6.596,5.844,2.666,0,4.135-1.196,5.058-2.597h.137v2.05h3.828v-10.184c0-4.716-3.52-7.348-8.065-7.348ZM240.451,60.729c-1.299,0-3.11-.649-3.11-2.256,0-2.05,2.256-2.836,4.204-2.836,1.743,0,2.563.376,3.622.889-.308,2.461-2.426,4.203-4.716,4.203ZM262.938,46.751l-4.545,11.517h-.137l-4.716-11.517h-4.272l7.074,16.096-4.033,8.954h4.135l10.902-25.05h-4.408ZM227.225,63.746h3.964v-26.564h-3.964v26.564Z" style="fill: #ffefe9;"/>
      <g>
        <path d="M44.021,41.274l-22.622,24.011s.002.01.004.015c.694,2.607,3.075,4.527,5.902,4.527,1.129,0,2.19-.306,3.1-.841l.072-.043,25.464-14.693-11.919-12.975Z" style="fill: #ea4335;"/>
        <path d="M66.908,37.185l-.022-.014-10.993-6.374-12.385,11.022,12.429,12.427,10.935-6.31c1.917-1.036,3.219-3.056,3.219-5.386,0-2.316-1.284-4.326-3.183-5.365Z" style="fill: #fbbc04;"/>
        <path d="M21.397,19.713c-.136.502-.207,1.028-.207,1.572v42.428c0,.545.071,1.072.209,1.571l23.4-23.396-23.402-22.176Z" style="fill: #4285f4;"/>
        <path d="M44.188,42.5l11.708-11.706-25.435-14.747c-.924-.554-2.003-.874-3.158-.874-2.827,0-5.211,1.924-5.905,4.534,0,.002,0,.004-.001.006l22.791,22.787Z" style="fill: #34a853;"/>
      </g>
    </g>
  </g>
</svg>