<?xml version="1.0" encoding="UTF-8"?>
<svg id="b" data-name="Layer_2" xmlns="http://www.w3.org/2000/svg" width="7.215" height="7.863" viewBox="0 0 7.215 7.863">
  <g id="c" data-name="Layer_1">
    <g id="d" data-name="stars-pink">
      <polygon points="2.346 7.863 1.473 6.404 1.472 6.398 1.466 6.395 1.462 6.39 1.457 6.39 0 5.517 0 4.938 1.468 4.058 2.348 2.59 2.927 2.59 3.8 4.048 3.801 4.061 3.809 4.061 3.811 4.063 3.816 4.063 5.273 4.936 5.273 5.515 3.805 6.394 2.925 7.863 2.346 7.863" style="fill: #b743ed;"/>
      <polygon points="4.26 3.164 3.735 2.289 3.735 2.285 3.732 2.283 3.729 2.28 3.726 2.28 2.852 1.756 2.852 1.409 3.733 .881 4.261 0 4.608 0 5.132 .875 5.132 .882 5.138 .882 5.139 .884 5.142 .884 6.016 1.408 6.016 1.755 5.135 2.283 4.607 3.164 4.26 3.164" style="fill: #b743ed;"/>
      <polygon points="6.272 4.732 5.991 4.262 5.99 4.26 5.988 4.259 5.987 4.258 5.986 4.258 5.516 3.976 5.516 3.79 5.989 3.506 6.273 3.033 6.459 3.033 6.741 3.503 6.741 3.507 6.743 3.507 6.744 3.508 6.746 3.508 7.215 3.789 7.215 3.976 6.742 4.259 6.459 4.732 6.272 4.732" style="fill: #b743ed;"/>
    </g>
  </g>
</svg>